<?xml version="1.0" encoding="utf8"?>
<svg id="Sphere_wireframe_15deg_4r"
   baseProfile="full" version="1.1"
   xmlns="http://www.w3.org/2000/svg"
   xmlns:xlink="http://www.w3.org/1999/xlink"
   width="800" height="800">

  <title>Sphere wireframe</title>

  <desc>
     Sphere wireframe
     depicted with perspective projection

     viewer distance from center: 4r
     line distancd: 15째
     line width: 2째
     axial tilt: 37.5째
     rotation: 11.25째
     base color: #22326b

     plotted with several adapted cubic bezier-curves
     The plotcurves were calculated by some fancy python code. The bezier-curve
     controlpoints are placed on tangents of the function-curve. They are
     furthermore positioned in a way to minimize the average quadratic distance
     between the bezier-curve and the function. This gives an accuracy, so that
     the deviation is in no point greater than 0.00001.

     about: http://commons.wikimedia.org/wiki/Image:Sphere_wireframe_15deg_4r.svg
     source: http://commons.wikimedia.org/
     rights: GNU Free Documentation license,
             Creative Commons Attribution ShareAlike license
  </desc>

  <defs>
    <radialGradient cx="-0.1" cy="0.1" r="1.2" fx="-0.3" fy="0.6" id="LightSpot_front" gradientUnits="userSpaceOnUse">
      <stop style="stop-color:#b6bbce; stop-opacity:1" offset="0" />
      <stop style="stop-color:#8a94ba; stop-opacity:1" offset="0.1" />
      <stop style="stop-color:#5f6c99; stop-opacity:1" offset="0.3" />
      <stop style="stop-color:#22326b; stop-opacity:1" offset="1" />
    </radialGradient>

    <radialGradient cx="0.1" cy="-0.1" r="1.2" fx="0.3" fy="-0.6" id="LightSpot_back" gradientUnits="userSpaceOnUse">
      <stop style="stop-color:#b6bbce; stop-opacity:1" offset="0" />
      <stop style="stop-color:#8a94ba; stop-opacity:1" offset="0.1" />
      <stop style="stop-color:#5f6c99; stop-opacity:1" offset="0.3" />
      <stop style="stop-color:#22326b; stop-opacity:1" offset="1" />
    </radialGradient>
  </defs>

  <g id="sphere" style="fill:#334070; stroke:none" transform="translate(400, 400) scale(400, -400)">
    <g id="back" style="opacity:0.2; fill:url(#LightSpot_back)">
      <path d="M 0.01325,-0.49831
C 0.08885,-0.50183 0.15614,-0.53511 0.18965,-0.58550
C 0.22233,-0.63465 0.21811,-0.69290 0.17852,-0.73916
C 0.13702,-0.78764 0.06312,-0.81545 -0.01413,-0.81161
C -0.09050,-0.80782 -0.15815,-0.77368 -0.19101,-0.72239
C -0.22270,-0.67291 -0.21734,-0.61473 -0.17687,-0.56891
C -0.13520,-0.52174 -0.06261,-0.49478 0.01325,-0.49831 Z
M 0.01411,-0.48605
C -0.06695,-0.48229 -0.14450,-0.51111 -0.18898,-0.56149
C -0.23219,-0.61043 -0.23785,-0.67256 -0.20394,-0.72537
C -0.16880,-0.78007 -0.09656,-0.81646 -0.01503,-0.82049
C 0.06745,-0.82458 0.14637,-0.79489 0.19068,-0.74315
C 0.23296,-0.69377 0.23747,-0.63159 0.20257,-0.57914
C 0.16677,-0.52532 0.09488,-0.48980 0.01411,-0.48605 Z" id="parallel_-75.0_back"/>
      <path d="M 0.02535,-0.30811
C 0.15370,-0.31376 0.27156,-0.36190 0.34556,-0.43890
C 0.41777,-0.51403 0.44067,-0.60879 0.40808,-0.69750
C 0.37446,-0.78898 0.28547,-0.86417 0.16658,-0.90152
C 0.04607,-0.93938 -0.09162,-0.93411 -0.20608,-0.88729
C -0.32077,-0.84037 -0.39913,-0.75704 -0.41814,-0.66187
C -0.43626,-0.57114 -0.39852,-0.47916 -0.31506,-0.41078
C -0.22898,-0.34026 -0.10358,-0.30243 0.02535,-0.30811 Z
M 0.02610,-0.29503
C -0.10702,-0.28919 -0.23649,-0.32823 -0.32532,-0.40099
C -0.41142,-0.47150 -0.45032,-0.56632 -0.43156,-0.65985
C -0.41190,-0.75788 -0.33108,-0.84370 -0.21282,-0.89206
C -0.09466,-0.94037 0.04750,-0.94582 0.17192,-0.90678
C 0.29470,-0.86826 0.38658,-0.79070 0.42124,-0.69633
C 0.45482,-0.60491 0.43117,-0.50728 0.35666,-0.42986
C 0.28027,-0.35047 0.15859,-0.30084 0.02610,-0.29503 Z" id="parallel_-60.0_back"/>
      <path d="M 0.03559,-0.10875
C 0.22588,-0.11662 0.40042,-0.18699 0.50842,-0.29936
C 0.61239,-0.40754 0.64370,-0.54324 0.59386,-0.66960
C 0.54287,-0.79886 0.41242,-0.90452 0.23941,-0.95664
C 0.06409,-1.00945 -0.13546,-1.00144 -0.30139,-0.93497
C -0.46240,-0.87048 -0.57463,-0.75778 -0.60731,-0.62785
C -0.64009,-0.49752 -0.58940,-0.36352 -0.46923,-0.26282
C -0.34390,-0.15781 -0.15710,-0.10078 0.03559,-0.10875 Z
M 0.03620,-0.09528
C -0.16057,-0.08719 -0.35129,-0.14543 -0.47905,-0.25259
C -0.60141,-0.35523 -0.65280,-0.49170 -0.61905,-0.62433
C -0.58543,-0.75646 -0.47082,-0.87097 -0.30659,-0.93642
C -0.13738,-1.00386 0.06597,-1.01186 0.24458,-0.95804
C 0.42053,-0.90502 0.55325,-0.79777 0.60533,-0.66656
C 0.65640,-0.53792 0.62461,-0.39971 0.51864,-0.28951
C 0.40852,-0.17500 0.23040,-0.10328 0.03620,-0.09528 Z" id="parallel_-45.0_back"/>
      <path d="M -0.51224,-0.85884
C -0.67253,-0.76324 -0.77013,-0.62690 -0.78294,-0.48083
C -0.79589,-0.33327 -0.72119,-0.18840 -0.57610,-0.07980
C -0.42764,0.03133 -0.21879,0.09454 -0.00000,0.09454
C 0.21879,0.09454 0.42764,0.03133 0.57610,-0.07980
C 0.72119,-0.18840 0.79588,-0.33327 0.78294,-0.48083
C 0.77013,-0.62690 0.67253,-0.76324 0.51224,-0.85884
C 0.52291,-0.85248 0.53345,-0.84592 0.54388,-0.83917
C 0.69717,-0.73981 0.78706,-0.60258 0.79386,-0.45759
C 0.80074,-0.31097 0.72207,-0.16853 0.57544,-0.06222
C 0.42553,0.04647 0.21752,0.10801 0.00000,0.10801
C -0.21752,0.10801 -0.42552,0.04647 -0.57544,-0.06222
C -0.72207,-0.16853 -0.80074,-0.31096 -0.79386,-0.45759
C -0.78706,-0.60258 -0.69717,-0.73981 -0.54388,-0.83917
C -0.53345,-0.84592 -0.52291,-0.85248 -0.51224,-0.85884 Z" id="parallel_-30.0_back"/>
      <path d="M -0.83777,-0.54602
C -0.93189,-0.40161 -0.93678,-0.23862 -0.85141,-0.09186
C -0.76372,0.05887 -0.58802,0.18008 -0.36370,0.24450
C -0.13173,0.31111 0.13173,0.31111 0.36369,0.24450
C 0.58802,0.18008 0.76372,0.05887 0.85141,-0.09186
C 0.93678,-0.23862 0.93189,-0.40161 0.83777,-0.54602
C 0.84250,-0.53876 0.84714,-0.53145 0.85168,-0.52407
C 0.94070,-0.37939 0.94126,-0.21764 0.85322,-0.07269
C 0.76282,0.07613 0.58629,0.19530 0.36238,0.25854
C 0.13101,0.32388 -0.13101,0.32388 -0.36238,0.25854
C -0.58629,0.19530 -0.76282,0.07614 -0.85322,-0.07269
C -0.94126,-0.21764 -0.94070,-0.37939 -0.85168,-0.52407
C -0.84714,-0.53144 -0.84250,-0.53876 -0.83777,-0.54602 Z" id="parallel_-15.0_back"/>
      <path d="M -0.97781,-0.20948
C -1.00689,-0.07377 -0.96226,0.06411 -0.85101,0.18223
C -0.73541,0.30498 -0.55489,0.39894 -0.34030,0.44803
C -0.12062,0.49829 0.12063,0.49829 0.34031,0.44803
C 0.55489,0.39894 0.73541,0.30497 0.85101,0.18223
C 0.96226,0.06410 1.00689,-0.07378 0.97781,-0.20948
C 0.97940,-0.20208 0.98093,-0.19451 0.98241,-0.18676
C 1.00797,-0.05228 0.96096,0.08369 0.84870,0.19989
C 0.73198,0.32069 0.55170,0.41293 0.33814,0.46107
C 0.11972,0.51031 -0.11972,0.51031 -0.33814,0.46108
C -0.55169,0.41294 -0.73198,0.32070 -0.84870,0.19989
C -0.96096,0.08369 -1.00797,-0.05228 -0.98241,-0.18676
C -0.98093,-0.19450 -0.97940,-0.20208 -0.97781,-0.20948 Z" id="parallel_0.0_back"/>
      <path d="M -0.99180,0.12782
C -0.97363,0.26880 -0.86665,0.40104 -0.69113,0.49933
C -0.50571,0.60316 -0.25792,0.66121 -0.00006,0.66122
C 0.25787,0.66123 0.50573,0.60316 0.69119,0.49930
C 0.86667,0.40101 0.97363,0.26879 0.99180,0.12782
C 0.99083,0.13529 0.98981,0.14261 0.98872,0.14977
C 0.96771,0.28845 0.85971,0.41800 0.68485,0.51410
C 0.50029,0.61554 0.25507,0.67214 0.00006,0.67215
C -0.25501,0.67216 -0.50032,0.61554 -0.68491,0.51407
C -0.85973,0.41797 -0.96772,0.28843 -0.98872,0.14977
C -0.98985,0.14233 -0.99087,0.13501 -0.99180,0.12782 Z" id="parallel_15.0_back"/>
      <path d="M -0.89656,0.44292
C -0.82759,0.58253 -0.64804,0.69918 -0.40479,0.76225
C -0.14913,0.82854 0.14933,0.82852 0.40496,0.76221
C 0.64813,0.69913 0.82761,0.58249 0.89656,0.44292
C 0.89324,0.44964 0.88991,0.45620 0.88657,0.46260
C 0.81561,0.59860 0.63745,0.71173 0.39783,0.77279
C 0.14628,0.83690 -0.14647,0.83689 -0.39799,0.77275
C -0.63753,0.71168 -0.81562,0.59856 -0.88657,0.46260
C -0.88991,0.45620 -0.89324,0.44964 -0.89656,0.44292 Z" id="parallel_30.0_back"/>
      <path d="M -0.69981,0.71433
C -0.61318,0.79920 -0.46572,0.86536 -0.28578,0.90003
C -0.10181,0.93548 0.10264,0.93543 0.28654,0.89989
C 0.46614,0.86517 0.61330,0.79908 0.69981,0.71433
C 0.69417,0.71986 0.68857,0.72521 0.68303,0.73039
C 0.59621,0.81158 0.45183,0.87454 0.27688,0.90746
C 0.09840,0.94105 -0.09928,0.94100 -0.27769,0.90731
C -0.45228,0.87434 -0.59635,0.81145 -0.68303,0.73039
C -0.68857,0.72521 -0.69417,0.71985 -0.69981,0.71433 Z" id="parallel_45.0_back"/>
      <path d="M -0.38347,0.92355
C -0.27842,0.96717 -0.14135,0.99132 0.00081,0.99123
C 0.14239,0.99114 0.27882,0.96701 0.38347,0.92355
C 0.37399,0.92749 0.36446,0.93128 0.35487,0.93492
C 0.25520,0.97275 0.12933,0.99346 -0.00065,0.99339
C -0.13018,0.99332 -0.25554,0.97262 -0.35487,0.93492
C -0.36446,0.93128 -0.37399,0.92749 -0.38347,0.92355 Z" id="parallel_60.0_back"/>
      <path d="M -0.06228,-0.99806
C -0.04257,-0.99929 -0.01686,-0.81371 0.00533,-0.50996
C 0.02830,-0.19557 0.04389,0.19606 0.04596,0.51067
C 0.04796,0.81366 0.03712,0.99950 0.01744,0.99985
C 0.02343,0.99974 0.02944,0.99958 0.03548,0.99937
C 0.05365,0.99873 0.06300,0.81091 0.06006,0.50554
C 0.05702,0.19084 0.04140,-0.19953 0.01931,-0.51262
C -0.00202,-0.81504 -0.02618,-0.99982 -0.04426,-0.99902
C -0.05027,-0.99875 -0.05628,-0.99843 -0.06228,-0.99806 Z" id="meridian_75.0_back"/>
      <path d="M -0.27758,-0.96070
C -0.21376,-0.97914 -0.13273,-0.90503 -0.05052,-0.75283
C 0.04338,-0.57896 0.13033,-0.31895 0.18820,-0.03890
C 0.24608,0.24119 0.26931,0.51440 0.25200,0.71126
C 0.23686,0.88353 0.19183,0.98367 0.12595,0.99204
C 0.13223,0.99124 0.13840,0.99040 0.14446,0.98951
C 0.20893,0.98010 0.25256,0.87946 0.26669,0.70722
C 0.28282,0.51044 0.25901,0.23790 0.20127,-0.04154
C 0.14352,-0.32103 0.05734,-0.58074 -0.03549,-0.75503
C -0.11672,-0.90754 -0.19667,-0.98263 -0.25958,-0.96572
C -0.26550,-0.96413 -0.27150,-0.96246 -0.27758,-0.96070 Z" id="meridian_75.0_back"/>
      <path d="M -0.49998,-0.86604
C -0.39675,-0.92564 -0.25637,-0.88923 -0.10915,-0.76451
C 0.05356,-0.62668 0.20935,-0.39396 0.31768,-0.12687
C 0.42545,0.13881 0.47569,0.41249 0.45550,0.62365
C 0.43713,0.81571 0.36202,0.93976 0.24650,0.96914
C 0.25316,0.96745 0.25968,0.96572 0.26607,0.96395
C 0.37939,0.93267 0.45235,0.80785 0.46924,0.61600
C 0.48790,0.40401 0.43641,0.12987 0.32798,-0.13590
C 0.22015,-0.40019 0.06645,-0.63066 -0.09400,-0.76865
C -0.24000,-0.89423 -0.37937,-0.93268 -0.48235,-0.87598
C -0.48836,-0.87267 -0.49424,-0.86935 -0.49998,-0.86604 Z" id="meridian_75.0_back"/>
      <path d="M -0.72520,-0.68854
C -0.63193,-0.78677 -0.49547,-0.82601 -0.33732,-0.80002
C -0.17296,-0.77302 0.00494,-0.67720 0.16618,-0.52879
C 0.33151,-0.37662 0.46877,-0.17890 0.55352,0.02921
C 0.63618,0.23216 0.66375,0.43233 0.63158,0.59576
C 0.60062,0.75301 0.51615,0.86714 0.39150,0.92018
C 0.39838,0.91725 0.40537,0.91419 0.41245,0.91098
C 0.56313,0.84276 0.65113,0.68352 0.65605,0.47003
C 0.66140,0.23745 0.56767,-0.03655 0.40021,-0.27781
C 0.23273,-0.51906 0.00880,-0.70268 -0.21097,-0.77899
C -0.41271,-0.84903 -0.59266,-0.82226 -0.70926,-0.70495
C -0.71453,-0.69965 -0.71985,-0.69418 -0.72520,-0.68854 Z" id="meridian_75.0_back"/>
      <path d="M -0.91989,-0.39218
C -0.85341,-0.54810 -0.72020,-0.65852 -0.54347,-0.70417
C -0.36139,-0.75119 -0.14519,-0.72637 0.06524,-0.63424
C 0.27855,-0.54085 0.47126,-0.38474 0.60688,-0.19546
C 0.74069,-0.00873 0.80984,0.19761 0.80163,0.38547
C 0.79366,0.56783 0.71330,0.72106 0.57458,0.81845
C 0.58183,0.81336 0.58901,0.80817 0.59612,0.80289
C 0.73024,0.70331 0.80634,0.54977 0.81140,0.36845
C 0.81662,0.18171 0.74616,-0.02241 0.61270,-0.20709
C 0.47745,-0.39426 0.28658,-0.54888 0.07541,-0.64234
C -0.13294,-0.73456 -0.34725,-0.76112 -0.52884,-0.71726
C -0.70516,-0.67467 -0.83957,-0.56836 -0.90914,-0.41649
C -0.91283,-0.40844 -0.91641,-0.40033 -0.91989,-0.39218 Z" id="meridian_75.0_back"/>
      <path d="M -0.99969,0.02494
C -1.00451,-0.16832 -0.92270,-0.34630 -0.76979,-0.47518
C -0.61393,-0.60654 -0.39537,-0.67748 -0.15714,-0.67402
C 0.08422,-0.67050 0.32793,-0.59087 0.52480,-0.45119
C 0.71911,-0.31333 0.85362,-0.12702 0.90184,0.07103
C 0.94916,0.26532 0.91009,0.45728 0.79209,0.61040
C 0.79826,0.60240 0.80430,0.59431 0.81021,0.58613
C 0.92173,0.43198 0.95537,0.24138 0.90488,0.04962
C 0.85344,-0.14574 0.71826,-0.32872 0.52524,-0.46421
C 0.32977,-0.60143 0.08898,-0.68011 -0.14981,-0.68478
C -0.38559,-0.68940 -0.60273,-0.62154 -0.75960,-0.49424
C -0.91357,-0.36930 -0.99897,-0.19561 -0.99999,-0.00535
C -1.00004,0.00475 -0.99994,0.01485 -0.99969,0.02494 Z" id="meridian_75.0_back"/>
      <path d="M -0.89423,0.44761
C -0.98377,0.26872 -0.98544,0.06610 -0.89891,-0.12044
C -0.81204,-0.30772 -0.64257,-0.46523 -0.42401,-0.56178
C -0.20116,-0.66023 0.05601,-0.68792 0.29471,-0.63916
C 0.52881,-0.59135 0.72793,-0.47352 0.85267,-0.30903
C 0.97693,-0.14518 1.01843,0.05315 0.96902,0.24700
C 0.97159,0.23688 0.97401,0.22673 0.97627,0.21654
C 1.01861,0.02566 0.97326,-0.16779 0.84876,-0.32724
C 0.72222,-0.48931 0.52287,-0.60479 0.28953,-0.65116
C 0.05326,-0.69812 -0.20064,-0.67078 -0.42151,-0.57461
C -0.63963,-0.47963 -0.80982,-0.32436 -0.89897,-0.13907
C -0.98667,0.04323 -0.98981,0.24190 -0.90780,0.41939
C -0.90343,0.42887 -0.89890,0.43828 -0.89423,0.44761 Z" id="meridian_75.0_back"/>
      <path d="M -0.68128,0.73202
C -0.81540,0.60720 -0.88070,0.43294 -0.86521,0.24114
C -0.84935,0.04480 -0.74994,-0.15636 -0.58596,-0.32384
C -0.41980,-0.49356 -0.19922,-0.61655 0.03250,-0.66871
C 0.26117,-0.72017 0.48456,-0.69901 0.65992,-0.60929
C 0.83123,-0.52165 0.94515,-0.37451 0.98084,-0.19481
C 0.97899,-0.20415 0.97700,-0.21346 0.97488,-0.22275
C 0.93469,-0.39865 0.81846,-0.54136 0.64696,-0.62539
C 0.47145,-0.71138 0.24986,-0.73014 0.02354,-0.67812
C -0.20574,-0.62542 -0.42391,-0.50376 -0.58925,-0.33641
C -0.75247,-0.17122 -0.85299,0.02714 -0.87209,0.22165
C -0.89075,0.41172 -0.83043,0.58561 -0.70192,0.71226
C -0.69514,0.71894 -0.68826,0.72553 -0.68128,0.73202 Z" id="meridian_75.0_back"/>
      <path d="M -0.47764,0.87856
C -0.61233,0.80533 -0.69832,0.67276 -0.72133,0.50279
C -0.74518,0.32665 -0.69988,0.12147 -0.59344,-0.07636
C -0.48531,-0.27734 -0.32121,-0.45745 -0.13114,-0.58378
C 0.05595,-0.70813 0.25603,-0.77229 0.43363,-0.76490
C 0.60500,-0.75777 0.74498,-0.68447 0.83041,-0.55716
C 0.82583,-0.56398 0.82117,-0.57074 0.81644,-0.57744
C 0.72914,-0.70086 0.58883,-0.77059 0.41827,-0.77529
C 0.24146,-0.78016 0.04308,-0.71483 -0.14233,-0.59064
C -0.33055,-0.46456 -0.49324,-0.28599 -0.60129,-0.08688
C -0.70774,0.10927 -0.75437,0.31285 -0.73310,0.48845
C -0.71259,0.65784 -0.63013,0.79107 -0.49913,0.86653
C -0.49201,0.87063 -0.48485,0.87463 -0.47764,0.87856 Z" id="meridian_75.0_back"/>
      <path d="M -0.31505,0.94907
C -0.45193,0.90364 -0.53759,0.76366 -0.55264,0.56061
C -0.56910,0.33867 -0.49965,0.06282 -0.36273,-0.19365
C -0.22581,-0.45013 -0.03524,-0.66131 0.15833,-0.77112
C 0.33542,-0.87159 0.49939,-0.87830 0.61330,-0.78985
C 0.60777,-0.79415 0.60208,-0.79847 0.59625,-0.80280
C 0.48201,-0.88765 0.31892,-0.87824 0.14321,-0.77657
C -0.04882,-0.66546 -0.23768,-0.45475 -0.37389,-0.19962
C -0.51010,0.05550 -0.58010,0.32967 -0.56558,0.55106
C -0.55230,0.75364 -0.46937,0.89439 -0.33531,0.94211
C -0.32870,0.94446 -0.32195,0.94678 -0.31505,0.94907 Z" id="meridian_75.0_back"/>
      <path d="M -0.18401,0.98292
C -0.27636,0.96564 -0.33779,0.85296 -0.35528,0.66843
C -0.37450,0.46557 -0.33889,0.19429 -0.25737,-0.07725
C -0.17585,-0.34880 -0.05616,-0.59484 0.07162,-0.75358
C 0.18785,-0.89797 0.30119,-0.95818 0.38778,-0.92175
C 0.38194,-0.92421 0.37597,-0.92665 0.36988,-0.92908
C 0.28390,-0.96331 0.17158,-0.90153 0.05638,-0.75642
C -0.07012,-0.59709 -0.18875,-0.35161 -0.26997,-0.08106
C -0.35120,0.18950 -0.38739,0.45972 -0.36957,0.66239
C -0.35333,0.84697 -0.29361,0.96039 -0.20299,0.97918
C -0.19657,0.98051 -0.19024,0.98176 -0.18401,0.98292 Z" id="meridian_75.0_back"/>
      <path d="M -0.07085,0.99749
C -0.11136,0.99461 -0.13923,0.89835 -0.14886,0.72743
C -0.15967,0.53547 -0.14653,0.26633 -0.11263,-0.01360
C -0.07874,-0.29353 -0.02727,-0.55804 0.02905,-0.74189
C 0.07920,-0.90560 0.12925,-0.99244 0.16928,-0.98557
C 0.16318,-0.98662 0.15717,-0.98759 0.15125,-0.98850
C 0.11294,-0.99436 0.06497,-0.91001 0.01652,-0.75129
C -0.03973,-0.56707 -0.09161,-0.29914 -0.12598,-0.01525
C -0.16036,0.26864 -0.17393,0.54121 -0.16328,0.73352
C -0.15411,0.89922 -0.12765,0.99258 -0.08905,0.99603
C -0.08296,0.99657 -0.07690,0.99706 -0.07085,0.99749 Z" id="meridian_75.0_back"/>
    </g>
    <g id="front" style="opacity:1; fill:url(#LightSpot_front)">
      <path d="M 0.51224,-0.85884
C 0.36984,-0.94377 0.18805,-0.99050 -0.00000,-0.99050
C -0.18805,-0.99050 -0.36984,-0.94377 -0.51224,-0.85884
C -0.52291,-0.85248 -0.53345,-0.84592 -0.54388,-0.83917
C -0.39661,-0.93461 -0.20210,-0.98776 0.00000,-0.98776
C 0.20211,-0.98776 0.39661,-0.93461 0.54388,-0.83917
C 0.53345,-0.84592 0.52291,-0.85248 0.51224,-0.85884 Z" id="parallel_-30.0_front"/>
      <path d="M 0.83777,-0.54602
C 0.74454,-0.68906 0.57101,-0.80273 0.35358,-0.86312
C 0.12746,-0.92592 -0.12745,-0.92592 -0.35357,-0.86312
C -0.57101,-0.80274 -0.74454,-0.68907 -0.83777,-0.54602
C -0.84250,-0.53876 -0.84714,-0.53144 -0.85168,-0.52407
C -0.76085,-0.67168 -0.58517,-0.78978 -0.36277,-0.85267
C -0.13117,-0.91816 0.13117,-0.91816 0.36277,-0.85267
C 0.58516,-0.78978 0.76085,-0.67168 0.85168,-0.52407
C 0.84714,-0.53145 0.84250,-0.53876 0.83777,-0.54602 Z" id="parallel_-15.0_front"/>
      <path d="M 0.97781,-0.20948
C 0.94699,-0.35335 0.83527,-0.48582 0.66242,-0.58332
C 0.48098,-0.68567 0.24485,-0.74236 0.00001,-0.74236
C -0.24484,-0.74236 -0.48096,-0.68568 -0.66241,-0.58332
C -0.83527,-0.48582 -0.94699,-0.35336 -0.97781,-0.20948
C -0.97946,-0.20178 -0.98099,-0.19420 -0.98241,-0.18676
C -0.95476,-0.33218 -0.84402,-0.46671 -0.67017,-0.56595
C -0.48753,-0.67020 -0.24829,-0.72807 -0.00000,-0.72807
C 0.24828,-0.72807 0.48752,-0.67020 0.67016,-0.56595
C 0.84402,-0.46671 0.95476,-0.33218 0.98241,-0.18676
C 0.98099,-0.19420 0.97946,-0.20178 0.97781,-0.20948 Z" id="parallel_0.0_front"/>
      <path d="M 0.99180,0.12782
C 1.01179,-0.02732 0.92267,-0.18063 0.74459,-0.29717
C 0.55582,-0.42069 0.28472,-0.49141 0.00001,-0.49141
C -0.28470,-0.49141 -0.55580,-0.42070 -0.74457,-0.29718
C -0.92267,-0.18064 -1.01179,-0.02733 -0.99180,0.12782
C -0.99083,0.13529 -0.98981,0.14261 -0.98872,0.14977
C -1.01221,-0.00527 -0.92511,-0.15919 -0.74741,-0.27645
C -0.55894,-0.40080 -0.28643,-0.47215 -0.00001,-0.47215
C 0.28642,-0.47216 0.55892,-0.40081 0.74739,-0.27646
C 0.92511,-0.15920 1.01221,-0.00527 0.98872,0.14977
C 0.98985,0.14233 0.99087,0.13501 0.99180,0.12782 Z" id="parallel_15.0_front"/>
      <path d="M 0.89656,0.44292
C 0.95220,0.33030 0.93182,0.21079 0.83898,0.10539
C 0.73962,-0.00740 0.56432,-0.09607 0.34801,-0.14287
C 0.12482,-0.19116 -0.12480,-0.19116 -0.34800,-0.14287
C -0.56431,-0.09607 -0.73962,-0.00740 -0.83898,0.10539
C -0.93182,0.21079 -0.95220,0.33030 -0.89656,0.44292
C -0.89324,0.44964 -0.88991,0.45620 -0.88657,0.46260
C -0.94475,0.35109 -0.92662,0.23221 -0.83538,0.12713
C -0.73776,0.01470 -0.56347,-0.07388 -0.34767,-0.12069
C -0.12483,-0.16902 0.12481,-0.16903 0.34766,-0.12069
C 0.56346,-0.07389 0.73776,0.01470 0.83538,0.12713
C 0.92662,0.23221 0.94475,0.35109 0.88657,0.46260
C 0.88991,0.45620 0.89324,0.44964 0.89656,0.44292 Z" id="parallel_30.0_front"/>
      <path d="M 0.69981,0.71433
C 0.79156,0.62445 0.80807,0.52048 0.74584,0.42470
C 0.67900,0.32181 0.52720,0.23742 0.32747,0.19222
C 0.11965,0.14519 -0.11966,0.14519 -0.32747,0.19222
C -0.52720,0.23742 -0.67899,0.32181 -0.74584,0.42470
C -0.80807,0.52048 -0.79156,0.62445 -0.69981,0.71433
C -0.69417,0.71986 -0.68857,0.72521 -0.68303,0.73039
C -0.77712,0.64240 -0.79635,0.53981 -0.73656,0.44493
C -0.67237,0.34307 -0.52286,0.25921 -0.32503,0.21423
C -0.11895,0.16738 0.11895,0.16738 0.32503,0.21423
C 0.52286,0.25921 0.67237,0.34307 0.73656,0.44493
C 0.79635,0.53981 0.77712,0.64240 0.68303,0.73039
C 0.68857,0.72521 0.69417,0.71986 0.69981,0.71433 Z" id="parallel_45.0_front"/>
      <path d="M 0.38347,0.92355
C 0.49343,0.87790 0.55980,0.81445 0.56846,0.74680
C 0.57712,0.67914 0.52735,0.61259 0.42972,0.56141
C 0.32159,0.50472 0.16484,0.47216 0.00000,0.47215
C -0.16484,0.47215 -0.32159,0.50472 -0.42972,0.56141
C -0.52735,0.61259 -0.57712,0.67914 -0.56846,0.74680
C -0.55980,0.81445 -0.49343,0.87790 -0.38347,0.92355
C -0.37399,0.92749 -0.36446,0.93128 -0.35487,0.93492
C -0.46806,0.89195 -0.53870,0.83025 -0.55113,0.76356
C -0.56349,0.69727 -0.51734,0.63142 -0.42273,0.58054
C -0.31766,0.52403 -0.16298,0.49141 -0.00001,0.49141
C 0.16297,0.49141 0.31765,0.52403 0.42273,0.58054
C 0.51734,0.63142 0.56349,0.69726 0.55113,0.76356
C 0.53870,0.83025 0.46806,0.89195 0.35487,0.93492
C 0.36446,0.93128 0.37399,0.92749 0.38347,0.92355 Z" id="parallel_60.0_front"/>
      <path d="M 0.01867,0.99026
C 0.12814,0.98734 0.22545,0.95917 0.27331,0.91659
C 0.31779,0.87701 0.31339,0.83042 0.26156,0.79254
C 0.20334,0.74998 0.09461,0.72514 -0.01967,0.72835
C -0.13087,0.73146 -0.22918,0.76063 -0.27585,0.80430
C -0.31892,0.84461 -0.31188,0.89161 -0.25710,0.92920
C -0.19795,0.96977 -0.09220,0.99321 0.01867,0.99026 Z
M 0.01757,0.98753
C -0.08636,0.99030 -0.18549,0.96840 -0.24097,0.93047
C -0.29241,0.89529 -0.29900,0.85128 -0.25849,0.81355
C -0.21456,0.77263 -0.12202,0.74536 -0.01750,0.74259
C 0.08927,0.73976 0.19071,0.76295 0.24513,0.80259
C 0.29374,0.83800 0.29793,0.88155 0.25630,0.91856
C 0.21149,0.95841 0.12025,0.98479 0.01757,0.98753 Z" id="parallel_75.0_front"/>
      <path d="M 0.01744,0.99985
C -0.00138,1.00018 -0.02571,0.83081 -0.04727,0.54875
C -0.07260,0.21747 -0.08970,-0.21112 -0.09084,-0.54334
C -0.09182,-0.82616 -0.08106,-0.99689 -0.06228,-0.99806
C -0.05625,-0.99843 -0.05024,-0.99876 -0.04426,-0.99902
C -0.06155,-0.99825 -0.07092,-0.82768 -0.06913,-0.54477
C -0.06702,-0.21229 -0.04990,0.21688 -0.02551,0.54849
C -0.00475,0.83068 0.01818,0.99998 0.03548,0.99937
C 0.02947,0.99958 0.02345,0.99974 0.01744,0.99985 Z" id="meridian_75.0_front"/>
      <path d="M 0.12595,0.99204
C 0.06234,1.00011 -0.01641,0.92208 -0.09568,0.77220
C -0.18764,0.59833 -0.27242,0.34273 -0.32919,0.06801
C -0.38596,-0.20670 -0.40943,-0.47496 -0.39392,-0.67104
C -0.38055,-0.84005 -0.33918,-0.94290 -0.27758,-0.96070
C -0.27169,-0.96240 -0.26569,-0.96408 -0.25958,-0.96572
C -0.32066,-0.94930 -0.36154,-0.84727 -0.37450,-0.67844
C -0.38958,-0.48213 -0.36565,-0.21252 -0.30855,0.06378
C -0.25146,0.34007 -0.16656,0.59708 -0.07491,0.77132
C 0.00391,0.92118 0.08188,0.99865 0.14446,0.98951
C 0.13840,0.99040 0.13223,0.99124 0.12595,0.99204 Z" id="meridian_75.0_front"/>
      <path d="M 0.24650,0.96914
C 0.13950,0.99636 0.00537,0.94041 -0.13079,0.81166
C -0.27936,0.67116 -0.41873,0.45498 -0.51808,0.21073
C -0.61744,-0.03352 -0.66854,-0.28560 -0.66022,-0.48991
C -0.65259,-0.67715 -0.59559,-0.81084 -0.49998,-0.86604
C -0.49424,-0.86935 -0.48836,-0.87267 -0.48235,-0.87598
C -0.57886,-0.82284 -0.63656,-0.68985 -0.64444,-0.50209
C -0.65305,-0.29692 -0.60151,-0.04265 -0.50123,0.20389
C -0.40095,0.45042 -0.26037,0.66847 -0.11099,0.80937
C 0.02571,0.93832 0.15986,0.99327 0.26607,0.96395
C 0.25945,0.96578 0.25292,0.96751 0.24650,0.96914 Z" id="meridian_75.0_front"/>
      <path d="M 0.39150,0.92018
C 0.25828,0.97686 0.08751,0.96022 -0.09030,0.87316
C -0.27736,0.78158 -0.45900,0.61854 -0.59950,0.41614
C -0.73999,0.21374 -0.82922,-0.01344 -0.84962,-0.22070
C -0.86901,-0.41773 -0.82488,-0.58355 -0.72520,-0.68854
C -0.71985,-0.69418 -0.71453,-0.69965 -0.70926,-0.70495
C -0.81187,-0.60171 -0.85812,-0.43562 -0.83952,-0.23688
C -0.81994,-0.02765 -0.72990,0.20265 -0.58749,0.40781
C -0.44508,0.61297 -0.26079,0.77785 -0.07162,0.86936
C 0.10807,0.95627 0.27985,0.97101 0.41245,0.91098
C 0.40538,0.91418 0.39840,0.91724 0.39150,0.92018 Z" id="meridian_75.0_front"/>
      <path d="M 0.57458,0.81845
C 0.44048,0.91259 0.25990,0.94890 0.06234,0.92139
C -0.14173,0.89298 -0.35118,0.79827 -0.52958,0.65374
C -0.70799,0.50922 -0.84412,0.32399 -0.91426,0.13027
C -0.98218,-0.05728 -0.98414,-0.24147 -0.91989,-0.39218
C -0.91641,-0.40033 -0.91283,-0.40844 -0.90914,-0.41649
C -0.97819,-0.26577 -0.97917,-0.07934 -0.91186,0.11144
C -0.84230,0.30861 -0.70426,0.49776 -0.52250,0.64500
C -0.34073,0.79224 -0.12706,0.88801 0.08026,0.91513
C 0.28085,0.94138 0.46301,0.90172 0.59612,0.80289
C 0.58901,0.80817 0.58183,0.81336 0.57458,0.81845 Z" id="meridian_75.0_front"/>
      <path d="M 0.79209,0.61040
C 0.68858,0.74472 0.53021,0.84150 0.34045,0.88636
C 0.14496,0.93257 -0.07292,0.92110 -0.27897,0.85377
C -0.48502,0.78645 -0.66764,0.66705 -0.79812,0.51433
C -0.92479,0.36608 -0.99546,0.19446 -0.99969,0.02494
C -0.99994,0.01484 -1.00004,0.00475 -0.99999,-0.00535
C -1.00091,0.16755 -0.93208,0.34405 -0.80408,0.49685
C -0.67272,0.65368 -0.48668,0.77644 -0.27618,0.84522
C -0.06569,0.91401 0.15695,0.92478 0.35557,0.87577
C 0.54910,0.82803 0.70887,0.72622 0.81021,0.58613
C 0.80430,0.59431 0.79826,0.60240 0.79209,0.61040 Z" id="meridian_75.0_front"/>
      <path d="M 0.96902,0.24700
C 0.91233,0.46940 0.74111,0.66610 0.49870,0.78722
C 0.24959,0.91169 -0.04980,0.94393 -0.31970,0.87534
C -0.58233,0.80859 -0.79150,0.65284 -0.89423,0.44761
C -0.89890,0.43828 -0.90343,0.42887 -0.90780,0.41939
C -0.83511,0.57675 -0.69965,0.70842 -0.52179,0.79457
C -0.33875,0.88323 -0.12116,0.91865 0.09639,0.89523
C 0.31393,0.87181 0.51899,0.79088 0.67897,0.66528
C 0.83442,0.54325 0.93874,0.38577 0.97627,0.21654
C 0.97401,0.22673 0.97159,0.23688 0.96902,0.24700 Z" id="meridian_75.0_front"/>
      <path d="M 0.98084,-0.19481
C 1.01358,-0.02995 0.97856,0.15269 0.88117,0.32469
C 0.78100,0.50162 0.62072,0.65693 0.42665,0.76514
C 0.23259,0.87335 0.01622,0.92807 -0.18695,0.92029
C -0.38447,0.91273 -0.55825,0.84653 -0.68128,0.73202
C -0.68826,0.72553 -0.69513,0.71894 -0.70192,0.71226
C -0.58042,0.83199 -0.40519,0.90237 -0.20436,0.91203
C 0.00234,0.92197 0.22358,0.86700 0.42181,0.75646
C 0.62004,0.64592 0.78310,0.48660 0.88329,0.30554
C 0.98063,0.12961 1.01287,-0.05645 0.97488,-0.22275
C 0.97700,-0.21346 0.97899,-0.20415 0.98084,-0.19481 Z" id="meridian_75.0_front"/>
      <path d="M 0.83041,-0.55716
C 0.91752,-0.42733 0.94253,-0.24931 0.90110,-0.05369
C 0.85804,0.14958 0.74611,0.35835 0.58601,0.53406
C 0.42593,0.70972 0.22849,0.84050 0.03014,0.90221
C -0.16076,0.96161 -0.34030,0.95322 -0.47764,0.87856
C -0.48485,0.87464 -0.49201,0.87063 -0.49913,0.86653
C -0.36260,0.94517 -0.18185,0.95617 0.01140,0.89753
C 0.21268,0.83645 0.41379,0.70400 0.57658,0.52531
C 0.73938,0.34663 0.85258,0.13409 0.89471,-0.07199
C 0.93515,-0.26985 0.90742,-0.44880 0.81644,-0.57744
C 0.82118,-0.57073 0.82583,-0.56397 0.83041,-0.55716 Z" id="meridian_75.0_front"/>
      <path d="M 0.61330,-0.78985
C 0.71565,-0.71038 0.77032,-0.55969 0.76714,-0.36553
C 0.76376,-0.15854 0.69490,0.08238 0.57492,0.30708
C 0.45497,0.53174 0.29311,0.72293 0.12304,0.84086
C -0.03650,0.95149 -0.19209,0.98989 -0.31505,0.94907
C -0.32171,0.94687 -0.32846,0.94455 -0.33531,0.94211
C -0.21302,0.98563 -0.05689,0.94860 0.10385,0.83785
C 0.27540,0.71965 0.43917,0.52647 0.56049,0.29922
C 0.68181,0.07197 0.75120,-0.17158 0.75396,-0.37989
C 0.75656,-0.57507 0.70045,-0.72541 0.59625,-0.80280
C 0.60208,-0.79847 0.60777,-0.79415 0.61330,-0.78985 Z" id="meridian_75.0_front"/>
      <path d="M 0.38778,-0.92175
C 0.46918,-0.88751 0.52125,-0.77027 0.53417,-0.59186
C 0.54868,-0.39152 0.51262,-0.13053 0.43433,0.13029
C 0.35603,0.39115 0.24236,0.62890 0.11989,0.78817
C 0.01084,0.92999 -0.09721,0.99917 -0.18401,0.98292
C -0.19046,0.98172 -0.19678,0.98047 -0.20299,0.97918
C -0.11712,0.99698 -0.00951,0.92854 0.09952,0.78662
C 0.22219,0.62692 0.33647,0.38750 0.41536,0.12470
C 0.49426,-0.13810 0.53075,-0.40088 0.51631,-0.60173
C 0.50348,-0.78024 0.45136,-0.89664 0.36988,-0.92908
C 0.37577,-0.92673 0.38174,-0.92429 0.38778,-0.92175 Z" id="meridian_75.0_front"/>
      <path d="M 0.16928,-0.98557
C 0.21012,-0.97855 0.23751,-0.87449 0.24578,-0.69479
C 0.25497,-0.49519 0.23977,-0.22010 0.20395,0.06166
C 0.16860,0.33974 0.11645,0.59839 0.06027,0.77436
C 0.01336,0.92131 -0.03304,1.00017 -0.07085,0.99749
C -0.07692,0.99706 -0.08299,0.99657 -0.08905,0.99603
C -0.05145,0.99939 -0.00478,0.91721 0.04245,0.76415
C 0.09931,0.57991 0.15190,0.30951 0.18664,0.02261
C 0.22138,-0.26429 0.23485,-0.53943 0.22361,-0.73192
C 0.21428,-0.89184 0.18857,-0.98278 0.15125,-0.98850
C 0.15717,-0.98759 0.16318,-0.98662 0.16928,-0.98557 Z" id="meridian_75.0_front"/>
    </g>
  </g>
</svg>
